<?xml version="1.0" encoding="UTF-8"?>
<svg id="Layer_2" data-name="Layer 2" xmlns="http://www.w3.org/2000/svg" xmlns:xlink="http://www.w3.org/1999/xlink" viewBox="0 0 85.06 85.06">
  <defs>
    <style>
      .cls-1 {
        fill: #fff;
        stroke: url(#linear-gradient);
        stroke-miterlimit: 10;
      }

      .cls-2 {
        fill: url(#linear-gradient-2);
      }

      .cls-2, .cls-3 {
        stroke-width: 0px;
      }

      .cls-3 {
        fill: url(#linear-gradient-3);
      }
    </style>
    <linearGradient id="linear-gradient" x1="0" y1="42.53" x2="85.06" y2="42.53" gradientUnits="userSpaceOnUse">
      <stop offset="0" stop-color="#5c6fb5"/>
      <stop offset=".5" stop-color="#6466af"/>
      <stop offset=".53" stop-color="#6a68b0"/>
      <stop offset=".68" stop-color="#7c70b3"/>
      <stop offset=".84" stop-color="#8875b5"/>
      <stop offset="1" stop-color="#8c77b6"/>
    </linearGradient>
    <linearGradient id="linear-gradient-2" x1="19.83" y1="42.53" x2="47.09" y2="42.53" xlink:href="#linear-gradient"/>
    <linearGradient id="linear-gradient-3" x1="37.97" y1="42.53" x2="65.22" y2="42.53" xlink:href="#linear-gradient"/>
  </defs>
  <g id="Layer_1-2" data-name="Layer 1">
    <circle class="cls-1" cx="42.53" cy="42.53" r="42.03"/>
    <g>
      <path class="cls-2" d="m42.31,27.13c-2.09,2.86-2.85,6.48-2.07,9.94,1.22,5.4.04,11.05-3.22,15.52l-9.26,12.66c-.16.22-.42.35-.7.35h-6.36c-.71,0-1.12-.81-.7-1.38l11.48-15.69c2.09-2.86,2.85-6.49,2.07-9.95-1.22-5.39-.04-11.04,3.22-15.51l2.38-3.25c.16-.22.42-.35.7-.35h6.37c.71,0,1.12.81.7,1.38l-4.61,6.29Z"/>
      <path class="cls-3" d="m58.9,29.25c-2.1,2.86-2.85,6.49-2.07,9.94,1.22,5.4.04,11.05-3.22,15.52l-7.71,10.54c-.16.22-.42.35-.7.35h-6.36c-.71,0-1.12-.81-.7-1.38l9.93-13.57c2.09-2.86,2.85-6.49,2.07-9.95-1.22-5.39-.05-11.04,3.22-15.51l3.94-5.38c.16-.22.42-.35.7-.35h6.35c.71,0,1.12.81.7,1.38l-6.15,8.41Z"/>
    </g>
  </g>
</svg>